<?xml version="1.0" encoding="UTF-8"?>
<!DOCTYPE svg PUBLIC "-//W3C//DTD SVG 1.1//EN" "http://www.w3.org/Graphics/SVG/1.1/DTD/svg11.dtd">
<svg xmlns="http://www.w3.org/2000/svg" version="1.1" width="325px" height="274px" style="shape-rendering:geometricPrecision; text-rendering:geometricPrecision; image-rendering:optimizeQuality; fill-rule:evenodd; clip-rule:evenodd" xmlns:xlink="http://www.w3.org/1999/xlink">
<g><path style="opacity:0.996" fill="#0077e5" d="M 123.5,-0.5 C 131.5,-0.5 139.5,-0.5 147.5,-0.5C 171.801,2.43376 194.634,10.1004 216,22.5C 214.734,26.4011 213.401,30.4011 212,34.5C 209.961,52.6439 212.961,69.9772 221,86.5C 234.034,112.692 252.534,134.025 276.5,150.5C 271.269,186.798 255.602,217.631 229.5,243C 206.008,261.552 179.342,271.719 149.5,273.5C 142.167,273.5 134.833,273.5 127.5,273.5C 55.6683,264.001 13.0016,223.668 -0.5,152.5C -0.5,142.833 -0.5,133.167 -0.5,123.5C 8.38242,75.5643 33.7158,39.0643 75.5,14C 90.7828,6.35217 106.783,1.51884 123.5,-0.5 Z"/></g>
<g><path style="opacity:0.983" fill="#ec6700" d="M 324.5,41.5 C 324.5,47.5 324.5,53.5 324.5,59.5C 318.41,75.4448 309.577,89.7782 298,102.5C 291,109.5 284,116.5 277,123.5C 261.792,109.302 248.458,93.6358 237,76.5C 223.282,50.2124 228.115,28.0457 251.5,10C 277.939,-2.68051 300.106,2.48615 318,25.5C 320.685,30.7441 322.852,36.0775 324.5,41.5 Z M 275.5,32.5 C 286.242,33.4078 292.242,39.2411 293.5,50C 291.067,63.0389 283.4,68.3722 270.5,66C 264.119,62.6056 260.452,57.2722 259.5,50C 260.596,40.0777 265.93,34.2444 275.5,32.5 Z"/></g>
<g><path style="opacity:1" fill="#fafcfe" d="M 170.5,60.5 C 171.552,60.3505 172.552,60.5172 173.5,61C 177,64.5 180.5,68 184,71.5C 184.667,72.1667 184.667,72.8333 184,73.5C 168,89.5 152,105.5 136,121.5C 135.333,122.167 135.333,122.833 136,123.5C 145.5,133 155,142.5 164.5,152C 190.498,152.5 216.498,152.667 242.5,152.5C 242.5,158.5 242.5,164.5 242.5,170.5C 233.167,170.5 223.833,170.5 214.5,170.5C 214.5,186.167 214.5,201.833 214.5,217.5C 208.5,217.5 202.5,217.5 196.5,217.5C 196.5,201.833 196.5,186.167 196.5,170.5C 183.163,170.667 169.829,170.5 156.5,170C 152.318,165.651 147.985,161.485 143.5,157.5C 122.833,177.833 102.167,198.167 81.5,218.5C 77.5151,215.016 73.6818,211.349 70,207.5C 69.3333,206.5 69.3333,205.5 70,204.5C 90.1667,184.333 110.333,164.167 130.5,144C 120.667,134.167 110.833,124.333 101,114.5C 85.1667,130.333 69.3333,146.167 53.5,162C 48.3377,159.182 44.0043,155.182 40.5,150C 55.9725,133.693 71.6391,117.527 87.5,101.5C 79.5,93.1667 71.5,84.8333 63.5,76.5C 67.5,72.1667 71.5,67.8333 75.5,63.5C 91.1528,78.6526 106.653,93.986 122,109.5C 138.368,93.2986 154.535,76.9652 170.5,60.5 Z"/></g>
</svg>
